<svg id="Layer_1" data-name="Layer 1" xmlns="http://www.w3.org/2000/svg" xmlns:xlink="http://www.w3.org/1999/xlink" viewBox="0 0 1559.77 584.03"><defs><style>.cls-1,.cls-7{fill:none;}.cls-2,.cls-5{fill:#fff;}.cls-2,.cls-7{stroke:#ccc;}.cls-2,.cls-3,.cls-4,.cls-7{stroke-miterlimit:10;}.cls-2,.cls-3,.cls-4{stroke-width:10px;}.cls-3{fill:#d4145a;}.cls-3,.cls-4{stroke:#9e005d;}.cls-4{fill:#ed1e79;}.cls-6{clip-path:url(#clip-path);}.cls-7{stroke-width:3px;}</style><clipPath id="clip-path"><path class="cls-1" d="M848.21,382a49,49,0,0,1-98,0Z"/></clipPath></defs><title>blossom</title><path class="cls-2" d="M666.55,259.42S669.73,89.91,369.14,43.57-39.73,134.23,21.42,255.44,207.12,362.92,237.24,297s-69.57,86.58,42.94,111,157.71-68.09,162.07-87.71,3,125.22,69.36,115.49,62.91-135.1,126.52-122Z"/><path class="cls-2" d="M901.86,269.19s-18.77-168.5,276.27-242.32,415.48,52.64,365.74,179-175,124.12-211.07,61.28,77.25,79.81-32.54,114.48S1137,328.32,1130.82,309.18s8.56,125-58.43,121.38S997.3,301.83,935.17,320.68Z"/><path class="cls-3" d="M717.46,470.07a96.71,96.71,0,0,1-8.52,54.22c-4.92,10.3-11.8,20.12-12.88,31.48-.73,7.72,1.78,16.19,8.12,20.66s16.65,3.13,20.15-3.78c3.1-6.11.2-13.49.87-20.31a48,48,0,0,1,2.49-9.57c6.56-20.75,5.92-43,5.23-64.76"/><path class="cls-3" d="M861,470.07a96.71,96.71,0,0,1-8.52,54.22c-4.92,10.3-11.8,20.12-12.88,31.48-.73,7.72,1.78,16.19,8.12,20.66s16.65,3.13,20.15-3.78c3.1-6.11.2-13.49.87-20.31a48,48,0,0,1,2.49-9.57c6.56-20.75,5.92-43,5.23-64.76"/><circle class="cls-4" cx="797.96" cy="338.96" r="164"/><path d="M773,309c0,37-19.7,36-44,36s-44,1-44-36,19.7-67,44-67S773,272,773,309Z"/><circle class="cls-5" cx="726.96" cy="272.96" r="19"/><circle class="cls-5" cx="741.96" cy="306.96" r="7.6"/><path d="M911,309c0,37-19.7,36-44,36s-44,1-44-36,19.7-67,44-67S911,272,911,309Z"/><circle class="cls-5" cx="864.96" cy="272.96" r="19"/><circle class="cls-5" cx="879.96" cy="306.96" r="7.6"/><path class="cls-5" d="M848.21,382a49,49,0,0,1-98,0Z"/><g class="cls-6"><line class="cls-7" x1="799.21" y1="440.99" x2="799.21" y2="370.9"/><polyline class="cls-7" points="774.21 370.9 774.21 403.04 774.21 432.48"/><polyline class="cls-7" points="824.21 370.9 824.21 403.04 824.21 432.48"/><line class="cls-7" x1="852.39" y1="403.96" x2="746.04" y2="403.96"/></g></svg>