<svg id="Layer_1" data-name="Layer 1" xmlns="http://www.w3.org/2000/svg" viewBox="0 0 458.5 234.6"><defs><style>.cls-1{fill:#fff;}.cls-2{fill:#b3b3b3;}</style></defs><title>cloud</title><path class="cls-1" d="M6.14,229.6A88.32,88.32,0,0,1,5,215.5a87.17,87.17,0,0,1,67-85.08l3.42-.82.38-3.5A136,136,0,0,1,339.92,97.58l1.45,4.32,4.43-1A87.52,87.52,0,0,1,441.87,229.6Z"/><path class="cls-2" d="M211,10A131.06,131.06,0,0,1,335.18,99.17l2.91,8.64,8.87-2.1a82.53,82.53,0,0,1,92,118.89H10.5a83.16,83.16,0,0,1-.5-9.1,81.6,81.6,0,0,1,18-51.44,82.84,82.84,0,0,1,45.18-28.78L80,133.64l.76-7A131,131,0,0,1,211,10m0-10A141,141,0,0,0,70.84,125.56,92.58,92.58,0,0,0,2,234.6H444.71A92.54,92.54,0,0,0,344.66,96,141.06,141.06,0,0,0,211,0Z"/></svg>